<?xml version="1.0" encoding="utf-8"?>
<!-- Generator: Adobe Illustrator 25.0.1, SVG Export Plug-In . SVG Version: 6.00 Build 0)  -->
<svg version="1.1" id="Layer_1" xmlns="http://www.w3.org/2000/svg" xmlns:xlink="http://www.w3.org/1999/xlink" x="0px" y="0px"
	 viewBox="0 0 750.6 375.1" style="enable-background:new 0 0 750.6 375.1;" xml:space="preserve">
<style type="text/css">
	.st0{fill:#FFFFFF;}
	.st1{fill:#FF9855;}
	.st2{font-family:'ArialMT';}
	.st3{font-size:36.6371px;}
</style>
<g id="Layer_1_2_">
	<g id="Layer_1_1_">
	</g>
</g>
<g id="Isolation_Mode_1_">
	<g>
		<path class="st0" d="M375.1,363.3C175,363.3,12.1,249.7,12,110.1c0-27.5,38.5-52.7,108.6-70.9C187.9,21.6,278.6,12,376.1,12
			c97.2,0,187.5,9.6,254.5,27c69.7,18.1,108,43.2,108,70.7c0,66.8-37.2,130-104.8,177.9c-68.9,48.8-160.7,75.6-258.4,75.7H375.1z"/>
		<path class="st1" d="M376.1,24c46.8,0,92.2,2.3,135.1,6.7c44.1,4.6,83.3,11.3,116.4,19.9c33.9,8.8,60,19.3,77.5,31
			c14.3,9.6,21.5,19,21.5,28.1c0,31.4-8.7,62-26,91c-17.2,28.7-42,54.7-73.7,77.1c-32.3,22.9-70.1,40.9-112.3,53.6
			c-44,13.2-90.9,19.9-139.2,19.9h-0.3c-48.3,0-95.1-6.7-139.1-19.8c-42.2-12.6-79.9-30.6-112.2-53.4c-31.7-22.4-56.5-48.3-73.7-77
			c-17.3-29-26.1-59.6-26.1-91c0-9.1,7.3-18.6,21.7-28.2c17.6-11.8,43.8-22.3,77.9-31.1c33.3-8.7,72.6-15.4,116.9-20
			C283.6,26.3,329.2,24,376.1,24 M376.1,0C188.1,0-0.1,36.7,0,110.1c0.1,146.4,168.1,265.2,375.1,265.2c0.1,0,0.2,0,0.3,0
			c207.2-0.1,375.3-119.1,375.2-265.6C750.6,36.5,563.4,0,376.1,0L376.1,0z"/>
	</g>
</g>
<text transform="matrix(1 0 0 1 231.2121 294.3672)" class="st0 st2 st3">Or cook at 18:00</text>
<g>
	<path class="st0" d="M375.3,72.6c-2.1,0-3.8-1.8-3.9-3.9c0-2.1,1.7-3.8,3.8-3.8c2.2,0,3.9,1.7,3.9,3.8
		C379.1,70.9,377.4,72.6,375.3,72.6z"/>
	<path class="st1" d="M375.2,52.9c-8.7,0-15.8,7.1-15.8,15.9c0.1,8.7,7.2,15.8,15.9,15.8c8.7,0,15.8-7.1,15.8-15.9
		C391.1,60,384,52.9,375.2,52.9L375.2,52.9z"/>
</g>
<g>
	<path class="st1" d="M148.7,215.2c-4.7,2.1-10.1,3.2-16.3,3.2c-5.6,0-10.8-0.9-15.5-2.8c-4.7-1.8-8.9-4.5-12.3-7.8
		c-3.5-3.4-6.2-7.4-8.2-12.1c-2-4.7-3-9.9-3-15.6c0-5.8,1-11.1,3-15.8c2-4.7,4.8-8.7,8.3-12c3.5-3.3,7.7-5.8,12.5-7.6
		c4.8-1.8,9.9-2.7,15.5-2.7c5.1,0,10.1,0.9,15.1,2.7c4.9,1.8,9,4.5,12,7.9l-11.9,11.9c-1.6-2.3-3.8-3.9-6.4-5
		c-2.7-1.1-5.4-1.6-8.2-1.6c-3.1,0-5.9,0.6-8.4,1.7s-4.8,2.7-6.6,4.7c-1.8,2-3.3,4.3-4.3,7c-1,2.7-1.5,5.6-1.5,8.9
		c0,3.3,0.5,6.3,1.5,9c1,2.7,2.4,5.1,4.2,7c1.8,1.9,4,3.5,6.5,4.6c2.5,1.1,5.3,1.6,8.3,1.6c3.5,0,6.5-0.7,9.1-2
		c2.6-1.4,4.7-3.1,6.2-5.3l12.2,11.5C157.3,210.1,153.4,213.1,148.7,215.2z"/>
	<path class="st1" d="M219.9,190.8c0,4.2-0.8,7.9-2.3,11.3c-1.5,3.4-3.5,6.2-6.1,8.6c-2.6,2.4-5.6,4.2-9,5.5
		c-3.4,1.3-7.1,1.9-11,1.9c-3.8,0-7.5-0.6-10.9-1.9c-3.4-1.3-6.4-3.1-9-5.5c-2.6-2.4-4.6-5.2-6.1-8.6c-1.5-3.4-2.3-7.1-2.3-11.3
		c0-4.2,0.8-7.9,2.3-11.3c1.5-3.3,3.5-6.2,6.1-8.5c2.6-2.3,5.6-4.1,9-5.3c3.4-1.2,7.1-1.8,10.9-1.8c3.9,0,7.5,0.6,11,1.8
		c3.4,1.2,6.4,3,9,5.3c2.6,2.3,4.6,5.2,6.1,8.5C219.1,182.9,219.9,186.6,219.9,190.8z M203.7,190.8c0-1.6-0.3-3.2-0.8-4.8
		c-0.5-1.6-1.3-3-2.4-4.1c-1-1.2-2.3-2.2-3.8-2.9c-1.5-0.8-3.2-1.1-5.2-1.1c-2,0-3.7,0.4-5.2,1.1c-1.5,0.8-2.7,1.7-3.7,2.9
		c-1,1.2-1.7,2.6-2.3,4.1c-0.5,1.6-0.8,3.2-0.8,4.8c0,1.6,0.3,3.2,0.8,4.8c0.5,1.6,1.3,3,2.3,4.2c1,1.3,2.3,2.3,3.8,3
		c1.5,0.8,3.2,1.1,5.2,1.1c2,0,3.7-0.4,5.2-1.1c1.5-0.8,2.8-1.8,3.8-3c1-1.3,1.8-2.7,2.3-4.2C203.5,194,203.7,192.4,203.7,190.8z"/>
	<path class="st1" d="M284.6,190.8c0,4.2-0.8,7.9-2.3,11.3c-1.5,3.4-3.5,6.2-6.1,8.6c-2.6,2.4-5.6,4.2-9,5.5
		c-3.4,1.3-7.1,1.9-11,1.9c-3.8,0-7.5-0.6-10.9-1.9c-3.4-1.3-6.4-3.1-9-5.5c-2.6-2.4-4.6-5.2-6.1-8.6c-1.5-3.4-2.3-7.1-2.3-11.3
		c0-4.2,0.8-7.9,2.3-11.3c1.5-3.3,3.5-6.2,6.1-8.5c2.6-2.3,5.6-4.1,9-5.3c3.4-1.2,7.1-1.8,10.9-1.8c3.9,0,7.5,0.6,11,1.8
		c3.4,1.2,6.4,3,9,5.3c2.6,2.3,4.6,5.2,6.1,8.5C283.8,182.9,284.6,186.6,284.6,190.8z M268.4,190.8c0-1.6-0.3-3.2-0.8-4.8
		c-0.5-1.6-1.3-3-2.4-4.1c-1-1.2-2.3-2.2-3.8-2.9c-1.5-0.8-3.2-1.1-5.2-1.1c-2,0-3.7,0.4-5.2,1.1c-1.5,0.8-2.7,1.7-3.7,2.9
		c-1,1.2-1.7,2.6-2.3,4.1c-0.5,1.6-0.8,3.2-0.8,4.8c0,1.6,0.3,3.2,0.8,4.8c0.5,1.6,1.3,3,2.3,4.2c1,1.3,2.3,2.3,3.8,3
		c1.5,0.8,3.2,1.1,5.2,1.1c2,0,3.7-0.4,5.2-1.1c1.5-0.8,2.8-1.8,3.8-3c1-1.3,1.8-2.7,2.3-4.2C268.1,194,268.4,192.4,268.4,190.8z"/>
	<path class="st1" d="M350,216.5h-20.8L312.5,192h-0.3v24.5h-16.9v-77.4h16.9v47.1h0.3l16.3-20.7h20.4l-19.7,23L350,216.5z"/>
	<path class="st1" d="M399.9,178v19.5c0,2.4,0.5,4.2,1.4,5.4s2.6,1.8,5,1.8c0.8,0,1.7-0.1,2.6-0.2c0.9-0.1,1.7-0.3,2.3-0.6l0.2,12.3
		c-1.2,0.4-2.6,0.8-4.4,1.1c-1.8,0.3-3.5,0.5-5.3,0.5c-3.4,0-6.3-0.4-8.6-1.3c-2.3-0.9-4.2-2.1-5.6-3.7c-1.4-1.6-2.4-3.5-3-5.7
		s-0.9-4.7-0.9-7.4V178h-8.2v-12.5h8.1v-13.4h16.5v13.4h12V178H399.9z"/>
	<path class="st1" d="M473.8,190.8c0,4.2-0.8,7.9-2.3,11.3c-1.5,3.4-3.5,6.2-6.1,8.6c-2.6,2.4-5.6,4.2-9,5.5
		c-3.4,1.3-7.1,1.9-11,1.9c-3.8,0-7.5-0.6-10.9-1.9c-3.4-1.3-6.4-3.1-9-5.5c-2.6-2.4-4.6-5.2-6.1-8.6c-1.5-3.4-2.3-7.1-2.3-11.3
		c0-4.2,0.8-7.9,2.3-11.3c1.5-3.3,3.5-6.2,6.1-8.5c2.6-2.3,5.6-4.1,9-5.3c3.4-1.2,7.1-1.8,10.9-1.8c3.9,0,7.5,0.6,11,1.8
		c3.4,1.2,6.4,3,9,5.3c2.6,2.3,4.6,5.2,6.1,8.5C473.1,182.9,473.8,186.6,473.8,190.8z M457.6,190.8c0-1.6-0.3-3.2-0.8-4.8
		c-0.5-1.6-1.3-3-2.4-4.1c-1-1.2-2.3-2.2-3.8-2.9c-1.5-0.8-3.2-1.1-5.2-1.1c-2,0-3.7,0.4-5.2,1.1c-1.5,0.8-2.7,1.7-3.7,2.9
		c-1,1.2-1.7,2.6-2.3,4.1c-0.5,1.6-0.8,3.2-0.8,4.8c0,1.6,0.3,3.2,0.8,4.8c0.5,1.6,1.3,3,2.3,4.2c1,1.3,2.3,2.3,3.8,3
		c1.5,0.8,3.2,1.1,5.2,1.1c2,0,3.7-0.4,5.2-1.1c1.5-0.8,2.8-1.8,3.8-3c1-1.3,1.8-2.7,2.3-4.2C457.4,194,457.6,192.4,457.6,190.8z"/>
	<path class="st1" d="M523,216.5v-6.7h-0.2c-1.6,2.6-4,4.6-7,6c-3,1.4-6.3,2.1-9.7,2.1c-3.8,0-7.2-0.8-10.2-2.3
		c-3-1.5-5.5-3.5-7.6-6c-2.1-2.5-3.7-5.4-4.8-8.6c-1.1-3.3-1.6-6.7-1.6-10.2c0-3.5,0.6-6.9,1.7-10.2c1.1-3.2,2.7-6.1,4.8-8.5
		c2.1-2.5,4.6-4.4,7.6-5.8c3-1.4,6.3-2.1,10-2.1c3.8,0,6.9,0.7,9.5,2.1c2.6,1.4,4.6,3,6,4.7h0.2v-31.8h16.8v77.4H523z M522.4,190.9
		c0-1.6-0.3-3.2-0.9-4.8c-0.6-1.6-1.4-3-2.5-4.2c-1.1-1.2-2.3-2.2-3.8-3c-1.5-0.8-3.2-1.1-5.1-1.1c-2,0-3.7,0.4-5.2,1.1
		c-1.5,0.8-2.8,1.7-3.8,2.9c-1,1.2-1.8,2.6-2.3,4.1c-0.5,1.6-0.8,3.2-0.8,4.8c0,1.6,0.3,3.3,0.8,4.9c0.5,1.6,1.3,3,2.3,4.2
		c1,1.2,2.3,2.2,3.8,3c1.5,0.8,3.2,1.1,5.2,1.1c1.9,0,3.6-0.4,5.1-1.1c1.5-0.8,2.8-1.7,3.8-3c1.1-1.2,1.9-2.6,2.5-4.2
		C522.1,194.1,522.4,192.5,522.4,190.9z"/>
	<path class="st1" d="M551.1,172.5c3-2.9,6.5-5,10.5-6.4c4-1.4,8.1-2.1,12.2-2.1c4.3,0,7.9,0.5,10.9,1.6c3,1.1,5.4,2.7,7.2,4.9
		c1.8,2.2,3.2,5,4,8.4c0.9,3.4,1.3,7.4,1.3,12v25.7h-15.4v-5.4h-0.3c-1.3,2.1-3.3,3.8-5.9,4.9c-2.6,1.2-5.5,1.7-8.5,1.7
		c-2,0-4.2-0.3-6.3-0.8c-2.2-0.5-4.2-1.4-6-2.7c-1.8-1.2-3.3-2.9-4.5-4.9c-1.2-2-1.7-4.6-1.7-7.6c0-3.7,1-6.7,3-8.9
		c2-2.3,4.6-4,7.8-5.2c3.2-1.2,6.7-2,10.6-2.5c3.9-0.4,7.7-0.6,11.4-0.6v-0.8c0-2.5-0.9-4.4-2.7-5.6c-1.8-1.2-4-1.8-6.5-1.8
		c-2.4,0-4.7,0.5-6.9,1.5c-2.2,1-4.1,2.3-5.7,3.7L551.1,172.5z M581.9,194.3h-2.1c-1.8,0-3.7,0.1-5.6,0.3c-1.9,0.2-3.5,0.5-5,1
		c-1.5,0.5-2.7,1.2-3.6,2.1c-1,0.9-1.4,2.1-1.4,3.6c0,1,0.2,1.8,0.7,2.5c0.4,0.7,1,1.2,1.7,1.6c0.7,0.4,1.5,0.7,2.4,0.9
		c0.9,0.2,1.7,0.3,2.6,0.3c3.4,0,6-0.9,7.8-2.8c1.8-1.9,2.7-4.4,2.7-7.6V194.3z"/>
	<path class="st1" d="M638.5,224.2c-1,2.7-2.2,5-3.4,7.1c-1.3,2.1-2.8,3.9-4.5,5.3c-1.7,1.5-3.8,2.6-6.1,3.3
		c-2.4,0.8-5.1,1.1-8.3,1.1c-1.6,0-3.2-0.1-4.9-0.3c-1.7-0.2-3.1-0.5-4.3-0.8l1.8-14.1c0.8,0.3,1.7,0.5,2.7,0.7
		c1,0.2,1.9,0.3,2.7,0.3c2.6,0,4.5-0.6,5.6-1.8c1.2-1.2,2.1-2.9,3-5.1l1.6-4.2l-21.3-50.1h18.6l11.4,32.8h0.3l10.1-32.8h17.8
		L638.5,224.2z"/>
</g>
</svg>
