<?xml version="1.0" encoding="utf-8"?>
<!-- Generator: Adobe Illustrator 25.0.1, SVG Export Plug-In . SVG Version: 6.00 Build 0)  -->
<svg version="1.1" id="Layer_1" xmlns="http://www.w3.org/2000/svg" xmlns:xlink="http://www.w3.org/1999/xlink" x="0px" y="0px"
	 viewBox="0 0 267.2 750.6" style="enable-background:new 0 0 267.2 750.6;" xml:space="preserve">
<style type="text/css">
	.st0{fill:#FF9855;}
</style>
<g id="Layer_1_2_">
	<g id="Layer_1_1_">
	</g>
</g>
<g>
	<path class="st0" d="M25.6,25.7c23,3.3,45.5,11.5,67.1,24.4c28.7,17.2,54.7,42,77.1,73.7c22.9,32.3,40.9,70.1,53.5,112.3
		c13.2,44,19.9,90.8,19.9,139.1c0,48.3-6.6,95.1-19.8,139.2c-12.6,42.2-30.6,80-53.4,112.3c-22.4,31.7-48.3,56.5-77.1,73.7
		c-21.6,13-44.2,21.1-67.3,24.5V25.7 M1.7,0c0,0-0.1,0-0.1,0v750.6c0.1,0,0.3,0,0.4,0c146.5-0.1,265.3-168.2,265.2-375.4
		C267.1,168.1,148.2,0,1.7,0L1.7,0z"/>
</g>
<g>
	<path class="st0" d="M66.9,444.3c-18.3,5-16.5-7-14.7-17.3c6.7-38.7,27.5-68.5,59.2-91c4.7-3.4,9.6-6.7,14.3-10.1
		c0.4-0.3,0.5-1.1,1.4-3.2c-36.6,8.8-55,35.9-72,65.4c-9.3-30.9,11-66,44.1-78.1c21.6-7.9,66.8-5.5,87,3.4
		c-11.9,19.3-24.2,38.7-36,58.5c-14.2,23.8-31.7,41.7-62.4,38c-11.5-1.4-17.2,3.7-18.3,14.7C68.5,431.1,67.8,437.4,66.9,444.3z"/>
</g>
</svg>
