<?xml version="1.0" encoding="utf-8"?>
<!-- Generator: Adobe Illustrator 25.0.1, SVG Export Plug-In . SVG Version: 6.00 Build 0)  -->
<svg version="1.1" id="Layer_1" xmlns="http://www.w3.org/2000/svg" xmlns:xlink="http://www.w3.org/1999/xlink" x="0px" y="0px"
	 viewBox="0 0 500 500" style="enable-background:new 0 0 500 500;" xml:space="preserve">
<style type="text/css">
	.st0{fill:#FFFFFF;}
</style>
<g>
	<g>
		<g>
			<g>
				<path class="st0" d="M252.6,279.5C252.6,279.5,252.6,279.5,252.6,279.5c0,15.1-0.1,30.2,0.1,45.3c0.1,7.5,4,13.1,11,16
					c6.8,2.8,13.4,1.9,19-3.1c5.8-5.2,7.1-11.8,5-19.2c-0.5-1.6-1.1-1.8-2.6-1c-3.7,2-7.8,2.8-11.9,3.4c-2,0.3-2.8-0.5-2.8-2.5
					c0.1-2.8,0.1-5.7,0-8.6c-0.1-2,0.7-2.9,2.6-3c7.8-0.4,15.1-7.9,15.5-15.6c0.1-2.1,1.2-2.7,3.1-2.7c2.6,0.1,5.2,0,7.9,0
					c2.8,0,3.4,0.6,3,3.5c-0.6,4.6-2,8.9-4.2,12.9c-0.6,1.1-0.8,2-0.1,3.2c2.3,4,3.7,8.3,4.3,12.8c0.3,1.9,1.2,2.4,2.9,2.3
					c4.1-0.2,7.7-1.8,10.6-4.6c6.3-6,7.5-14.6,3.4-22.5c-0.5-1-1.4-2-1-3.2c1.1-3,2.1-5.7,6-6.8c11.8-3.6,16.1-17.7,8.9-27.6
					c-1.1-1.5-2.4-2.2-4.3-2.1c-8.2,0.1-16.3,0.1-24.5,0c-1.8,0-2.8,0.6-3.3,2.4c-1.2,4.1-3.1,7.9-6,11.1c-1.9,2.2-2.3,2.3-4.4,0.4
					c-1.8-1.7-3.4-3.6-5.2-5.2c-1.8-1.6-1.8-2.8-0.4-4.8c3.9-5.6,4.9-11.8,1.8-18.1c-3.3-6.8-8.9-10.3-16.4-10.5c-5-0.2-10,0-15-0.1
					c-2.2-0.1-2.9,0.7-2.9,3C252.6,249.5,252.6,264.5,252.6,279.5z M238.9,219.7c0-7.4,0-14.8,0-22.2c0-7.5,0.1-15-0.1-22.4
					c-0.1-7-3.2-12.5-9.4-15.9c-6.5-3.6-14.4-2.7-20.1,2.1c-6.1,5.1-7.3,11.7-5.7,19c0.5,2.3,1.1,2.5,3.2,1.4c3.8-2,7.8-2.8,12-3.1
					c1.6-0.1,2.4,0.5,2.4,2.2c-0.1,3.1,0,6.2,0,9.2c0,1.4-0.5,2.1-2,2.3c-9,1-15.7,8.1-16.1,16.1c-0.1,1.7-1.1,2.2-2.6,2.2
					c-2.8,0-5.5,0.1-8.3,0c-2.8-0.1-3.4-0.7-3-3.5c0.5-4.6,2.1-8.8,4.2-12.9c0.7-1.2,0.7-2.2,0-3.4c-2.3-3.7-3.4-7.7-4.1-12
					c-0.5-2.9-0.8-3.2-3.8-2.8c-12.9,1.7-19.3,15.5-13.5,26.4c2.3,4.3,0.6,8.6-4,10.1c-12.3,4.3-16.9,17.7-9.6,28
					c1.1,1.5,2.3,2.2,4.2,2.2c8.2-0.1,16.3-0.1,24.5,0c1.8,0,2.8-0.5,3.4-2.3c1.3-4.2,3.4-8.1,6.2-11.5c1.6-1.9,2.2-2,3.9-0.3
					c1.8,1.8,3.6,3.6,5.4,5.4c2.4,2.4,2.5,2.4,0.5,5.1c-4.3,5.8-4.5,12.1-1.6,18.4c3.1,6.7,8.9,10,16.1,10.2
					c4.9,0.2,9.8-0.1,14.8,0.1c3.2,0.1,3.2,0,3.3-3.2C238.9,249.6,238.9,234.6,238.9,219.7z M238.8,304.9
					C238.8,304.9,238.9,304.9,238.8,304.9c0-6.9,0-13.7,0.1-20.6c0-2.2-0.7-3-2.9-2.9c-5.5,0.1-11.1,0.2-16.6,0
					c-7.6-0.3-14.2-3.1-19.8-8.2c-4.4-4-7.5-8.8-9.2-14.4c-0.5-1.6-1.2-2.2-2.9-2.2c-8.4,0.1-16.8,0-25.2,0c-1.6,0-2.7,0.6-3.7,1.9
					c-7.8,10.3-2.8,24.8,9.7,28.3c3.9,1.1,5.9,6,4.1,9.5c-2.9,5.4-3.2,11-0.9,16.7c2.4,5.8,9,10.4,14.7,10.4c1.9,0,2.9-0.4,3.2-2.6
					c0.5-4.3,1.9-8.4,4.1-12.2c0.8-1.3,0.7-2.3,0-3.6c-2.3-4-3.6-8.3-4.2-12.9c-0.4-2.7,0.2-3.4,2.9-3.4c2.6,0,5.2,0.1,7.9,0
					c2.1-0.1,3.2,0.6,3.3,2.8c0.1,2.4,0.9,4.7,2.1,6.8c3.2,5.1,7.7,8.1,13.7,8.8c1.6,0.2,2.3,0.9,2.2,2.5c-0.1,3.1-0.1,6.2,0,9.2
					c0.1,1.8-0.6,2.3-2.3,2.1c-4.3-0.6-8.5-1.4-12.4-3.4c-1.1-0.6-2-1-2.5,0.7c-1.3,4.7-1.7,9.4,0.6,14c3.8,7.7,12.1,11.6,20.3,9.8
					c8.3-1.9,14-9.1,14-17.8C238.9,317.7,238.8,311.3,238.8,304.9z M252.6,194.7C252.6,194.7,252.6,194.7,252.6,194.7
					c0,6.8,0,13.6-0.1,20.3c0,2.1,0.7,2.8,2.8,2.8c5.5-0.1,10.9-0.1,16.4,0c5.6,0.2,10.8,1.7,15.5,4.6c6.8,4.2,11.3,10.1,13.7,17.7
					c0.5,1.5,1,2.6,2.9,2.6c8.6-0.1,17.1,0,25.7,0c1.1,0,2.1-0.2,2.8-1.2c2.2-3,3.9-6.3,4.1-10.1c0.4-9.1-4.3-15.9-13.2-18.9
					c-1.1-0.4-2.4-0.4-3-1.6c-1.4-2.8-2.8-5.3-0.8-8.9c6.1-11.3-1.6-25-14.2-26.2c-1.9-0.2-2.9,0.3-3.1,2.4
					c-0.6,4.3-1.6,8.5-3.9,12.2c-1,1.5-0.8,2.7,0,4.2c2.1,4.1,3.6,8.3,4.1,12.9c0.2,2-0.5,3.1-2.7,3c-2.9-0.1-5.9,0-8.8,0
					c-1.6,0-2.4-0.7-2.6-2.3c-0.2-1.7-0.5-3.4-1.1-4.9c-2.7-6.2-7.4-9.9-14.1-10.9c-2.1-0.3-3-1.1-2.8-3.3c0.1-2.8,0.1-5.5,0-8.3
					c-0.1-2,0.8-2.6,2.7-2.4c4.2,0.4,8.3,1.1,11.9,3.3c1.5,0.9,2.5,0.6,2.9-1.1c2.2-8.9-0.3-17.4-9-21.8
					c-12.2-6.1-25.9,2.5-26.1,16.2C252.5,181.6,252.6,188.2,252.6,194.7z"/>
			</g>
		</g>
	</g>
</g>
<path class="st0" d="M89.1,204.8 M89.1,294.7c-0.4-3.8-0.5-7.8,0-11.6 M401.3,358.4c-2,28.6-18.3,45.3-46.7,47.8
	c-8.1,0.7-11.2,2.8-10.6,11c0.6,8.2,0.4,16.5,0,24.7c-0.6,13.5-9.5,22.8-21.4,22.7c-11.8-0.1-20.3-9.3-21-23.1
	c-0.3-6.3-0.9-12.7,0.1-18.9c2.2-14.1-4.3-18.1-17-16.1c-0.5,0.1-1,0.1-1.4,0c-12.2-2.1-18.1,1.9-16.1,15.4c1,6.6,0.5,13.6,0,20.3
	c-1,13.5-10.2,22.6-22,22.4c-11.9-0.2-20.5-9.5-21-23.2c-0.3-6.3-0.9-12.7,0.1-18.9c2.2-14-4.2-16.1-16.7-16.6
	c-14.6-0.5-20.4,3.5-18,18.3c1,6.1,0.3,12.6,0,18.9c-0.6,12.5-7.8,19.7-19.8,21.2c-11.1,1.5-21.4-7.3-22.8-19.7
	c-1-9.6-0.7-19.4-0.4-29c0.2-6.8-2.2-8.7-9-9.4c-30.3-3.2-44.4-17.6-47.5-48.3c-0.7-6.8-2.7-9.4-9.6-9.1c-8.7,0.4-17.4,0.3-26.1,0
	c-14.2-0.6-22.5-8.6-22.6-21.2c-0.1-12.4,8.2-21,22.2-21.9c8.2-0.5,16.5-0.7,24.7,0c9.1,0.7,12.4-3,11.3-11.7
	c-0.4-2.9-0.4-5.9,0-8.7c1.5-10.5-2.2-15.3-13.5-14.2c-8.1,0.8-16.5,0.5-24.7-0.1c-12.5-0.9-19.4-8-19.9-20.6
	c-0.5-12.3,7.5-20.7,20.5-21.5c8.7-0.5,17.5-0.7,26.1-0.1c9.1,0.7,12.2-3.2,11.4-11.8c-0.5-4.8-0.3-9.7,0-14.5
	c0.4-6.4-2.7-8.5-8.7-8.3c-9.2,0.3-18.4,0.4-27.6-0.1c-13.6-0.7-22.1-9.7-21.8-22.1c0.3-11.8,8.6-20,21.5-21c2.9-0.2,5.8,0,8.7-0.1
	c8.2-0.2,17.5,2,24.3-1.2c7.5-3.5,2.4-14,4.9-21.1c7.3-20.9,21.9-33.2,43.8-34.7c10-0.7,12.2-4.4,11.6-13.2
	c-0.5-8.2-0.6-16.5,0.2-24.7c1.2-12.4,11.1-21.2,22.1-20.8c11.6,0.4,20,9.1,20.6,22c0.4,8.7,0.5,17.5,0,26.2
	c-0.4,7.7,2.6,10.6,10.1,9.9c3.4-0.3,6.8-0.4,10.2,0c11.1,1.6,16.1-2.2,14.5-14.1c-0.9-7.1-0.4-14.5-0.1-21.8
	c0.7-12.9,8.9-21.6,20.5-22.2c11.1-0.5,21.2,8.2,22.3,20.5c0.9,9.1,0.7,18.4,0.2,27.6c-0.4,7.6,2.3,10.7,9.9,10
	c4.3-0.4,8.8-0.5,13.1,0c9.1,1.1,11.9-3,11.4-11.7c-0.5-8.7-0.4-17.5,0.2-26.1c0.8-12.7,8.7-19.2,20.7-20.2
	c11.3-0.9,20.3,8.5,21.4,21c0.2,1.9,0.1,3.9,0.1,5.8c0.2,9.2-2.3,19.6,1.2,27.2c3.7,8.2,15.8,3.3,23.7,6.6
	c19,8.1,31.3,21.7,32.1,42.6 M401.4,294.9 M401.5,205c0.4,3.8,0.5,7.8,0,11.6 M246.1,363.1c32.4,0,64.8-0.5,97.2,0.3
	c12.4,0.3,15.4-4,15.3-15.8c-0.5-64.8-0.5-129.7,0-194.5c0.1-12.4-3.1-16.9-16.2-16.7c-57,0.7-114.1,0.2-171.1,0.5
	c-12,0.1-26.6-5-35.3,2.2c-9.4,7.8-2.6,22.7-2.7,34.5c-0.4,57.9-0.6,115.9-1.4,173.8c-0.2,11.6,2.9,16.3,15.4,16
	C180.3,362.6,213.2,363.1,246.1,363.1z M89.2,141.3c2-28.6,18.3-45.3,46.7-47.8c8.1-0.7,11.2-2.8,10.6-11c-0.6-8.2-0.4-16.5,0-24.7
	c0.6-13.5,9.5-22.8,21.4-22.7c11.8,0.1,20.3,9.3,21,23.1c0.3,6.3,0.9,12.7-0.1,18.9c-2.2,14.1,4.3,18.1,17,16.1c0.5-0.1,1-0.1,1.4,0
	c12.2,2.1,18.1-1.9,16.1-15.4c-1-6.6-0.5-13.6,0-20.3c1-13.5,10.2-22.6,22-22.4c11.9,0.2,20.5,9.5,21,23.2
	c0.3,6.3,0.9,12.7-0.1,18.9c-2.2,14,4.2,16.1,16.7,16.6c14.6,0.5,20.4-3.5,18-18.3c-1-6.1-0.3-12.6,0-18.9
	c0.6-12.5,7.8-19.7,19.8-21.2c11.1-1.5,21.4,7.3,22.8,19.7c1,9.6,0.7,19.4,0.4,29c-0.2,6.8,2.2,8.7,9,9.4
	c30.3,3.2,44.4,17.6,47.5,48.3c0.7,6.8,2.7,9.4,9.6,9.1c8.7-0.4,17.4-0.3,26.1,0c14.2,0.6,22.5,8.6,22.6,21.2
	c0.1,12.4-8.2,21-22.2,21.9c-8.2,0.5-16.5,0.7-24.7,0c-9.1-0.7-12.4,3-11.3,11.7c0.4,2.9,0.4,5.9,0,8.7
	c-1.5,10.5,2.2,15.3,13.5,14.2c8.1-0.8,16.5-0.5,24.7,0.1c12.5,0.9,19.4,8,19.9,20.6c0.5,12.3-7.5,20.7-20.5,21.5
	c-8.7,0.5-17.5,0.7-26.1,0.1c-9.1-0.7-12.2,3.2-11.4,11.8c0.5,4.8,0.3,9.7,0,14.5c-0.4,6.4,2.7,8.5,8.7,8.3
	c9.2-0.3,18.4-0.4,27.6,0.1c13.6,0.7,22.1,9.7,21.8,22.1c-0.3,11.8-8.6,20-21.5,21c-2.9,0.2-5.8,0-8.7,0.1c-8.2,0.2-17.5-2-24.3,1.2
	c-7.5,3.5-2.4,14-4.9,21.1c-7.3,20.9-21.9,33.2-43.8,34.7c-10,0.7-12.2,4.4-11.6,13.2c0.5,8.2,0.6,16.5-0.2,24.7
	c-1.2,12.4-11.1,21.2-22.1,20.8c-11.6-0.4-20-9.1-20.6-22c-0.4-8.7-0.5-17.5,0-26.2c0.4-7.7-2.6-10.6-10.1-9.9
	c-3.4,0.3-6.8,0.4-10.2,0c-11.1-1.6-16.1,2.2-14.5,14.1c0.9,7.1,0.4,14.5,0.1,21.8c-0.7,12.9-8.9,21.6-20.5,22.2
	c-11.1,0.5-21.2-8.2-22.3-20.5c-0.9-9.1-0.7-18.4-0.2-27.6c0.4-7.6-2.3-10.7-9.9-10c-4.3,0.4-8.8,0.5-13.1,0
	c-9.1-1.1-11.9,3-11.4,11.7c0.5,8.7,0.4,17.5-0.2,26.1c-0.8,12.7-8.7,19.2-20.7,20.2c-11.3,0.9-20.3-8.5-21.4-21
	c-0.2-1.9-0.1-3.9-0.1-5.8c-0.2-9.2,2.3-19.6-1.2-27.2c-3.7-8.2-15.8-3.3-23.7-6.6c-19-8.1-31.3-21.7-32.1-42.6 M244.5,136.5
	c-32.4,0-64.8,0.5-97.2-0.3c-12.4-0.3-15.4,4-15.3,15.8c0.5,64.8,0.5,129.7,0,194.5c-0.1,12.4,3.1,16.9,16.2,16.7
	c57-0.7,114.1-0.2,171.1-0.5c12-0.1,26.6,5,35.3-2.2c9.4-7.8,2.6-22.7,2.7-34.5c0.4-57.9,0.6-115.9,1.4-173.8
	c0.2-11.6-2.9-16.3-15.4-16C310.2,137.1,277.3,136.5,244.5,136.5z"/>
</svg>
