<?xml version="1.0" encoding="utf-8"?>
<!-- Generator: Adobe Illustrator 25.0.1, SVG Export Plug-In . SVG Version: 6.00 Build 0)  -->
<svg version="1.1" id="Layer_1" xmlns="http://www.w3.org/2000/svg" xmlns:xlink="http://www.w3.org/1999/xlink" x="0px" y="0px"
	 viewBox="0 0 800 800" style="enable-background:new 0 0 800 800;" xml:space="preserve">
<style type="text/css">
	.st0{fill:#FF9855;}
	.st1{fill:#FFFFFF;stroke:#FFFFFF;stroke-width:2;stroke-miterlimit:10;}
	.st2{fill:#FFFFFF;}
	.st3{font-family:'MyriadPro-Regular';}
	.st4{font-size:36.6371px;}
</style>
<g id="Layer_1_2_">
	<g id="Layer_1_1_">
	</g>
</g>
<g id="Isolation_Mode_1_">
	<path class="st0" d="M322.1,24.7c-146.6,0.1-146.1,750.7,0.4,750.6s265.3-168.2,265.2-375.4S468.6,24.6,322.1,24.7z M281.2,415.9
		c-8.8,0-15.9-7.1-15.9-15.8c0-8.8,7.1-15.9,15.8-15.9c8.8,0,15.9,7.1,15.9,15.8C297,408.7,289.9,415.8,281.2,415.9z"/>
</g>
<g>
	<g>
		<path class="st1" d="M429.2,576.1c2.9,5.5,4.4,12.4,4.4,20.6c0,10.6-3.4,19.1-10.3,25.5c-6.8,6.4-15.8,9.6-26.9,9.6
			c-12,0-21.6-3.6-29-10.8s-11-16.3-11-27.4c0-7.1,1-13,3.1-17.6h9.3c-3,5.4-4.5,11.3-4.5,17.7c0,8.6,2.9,15.5,8.6,20.9
			c5.7,5.3,13.4,8,23,8c9.1,0,16.4-2.5,21.8-7.5s8.1-11.5,8.1-19.6c0-7.5-1.7-14-5-19.5L429.2,576.1L429.2,576.1z"/>
		<path class="st1" d="M433.6,539.7c0,7.9-2.5,14.2-7.5,18.9s-11.6,7.1-19.8,7.1c-9,0-16-2.4-21-7.3c-5-4.9-7.6-11.5-7.6-19.9
			c0-8,2.4-14.2,7.3-18.6c4.9-4.5,11.7-6.7,20.4-6.7c8.5,0,15.3,2.4,20.5,7.2C431,525.2,433.6,531.6,433.6,539.7z M384.9,539.1
			c0,5.5,1.9,9.8,5.6,13s8.9,4.8,15.5,4.8c6.3,0,11.3-1.6,15-4.8c3.6-3.2,5.5-7.6,5.5-13c0-5.5-1.8-9.8-5.4-12.7
			c-3.6-3-8.7-4.5-15.3-4.5c-6.7,0-11.8,1.5-15.4,4.5C386.7,529.3,384.9,533.6,384.9,539.1z"/>
		<path class="st1" d="M433.6,477.2c0,7.9-2.5,14.2-7.5,18.9c-5,4.7-11.6,7.1-19.8,7.1c-9,0-16-2.4-21-7.3s-7.6-11.5-7.6-19.9
			c0-8,2.4-14.2,7.3-18.6c4.9-4.5,11.7-6.7,20.4-6.7c8.5,0,15.3,2.4,20.5,7.2C431,462.6,433.6,469.1,433.6,477.2z M384.9,476.6
			c0,5.5,1.9,9.8,5.6,13s8.9,4.8,15.5,4.8c6.3,0,11.3-1.6,15-4.8c3.6-3.2,5.5-7.6,5.5-13c0-5.5-1.8-9.8-5.4-12.7
			c-3.6-3-8.7-4.5-15.3-4.5c-6.7,0-11.8,1.5-15.4,4.5C386.7,466.8,384.9,471,384.9,476.6z"/>
		<path class="st1" d="M432.3,392.7v12l-25.6,23.6v0.2h25.6v8.5h-79v-8.5h50.1v-0.2L379,405.9v-11.2l25.7,24.8L432.3,392.7z"/>
		<path class="st1" d="M432.3,310.4v8.5h-30.4c-11.3,0-17,4.1-17,12.4c0,4.3,1.6,7.8,4.8,10.6c3.2,2.8,7.3,4.2,12.2,4.2h30.4v8.5
			h-53.4v-8.5h8.9v-0.2c-6.7-4-10.1-9.9-10.1-17.5c0-5.8,1.9-10.3,5.7-13.4c3.8-3.1,9.2-4.6,16.3-4.6H432.3z"/>
		<path class="st1" d="M433.6,272c0,7.9-2.5,14.2-7.5,18.9c-5,4.7-11.6,7.1-19.8,7.1c-9,0-16-2.4-21-7.3s-7.6-11.5-7.6-19.9
			c0-8,2.4-14.2,7.3-18.6c4.9-4.5,11.7-6.7,20.4-6.7c8.5,0,15.3,2.4,20.5,7.2C431,257.4,433.6,263.9,433.6,272z M384.9,271.3
			c0,5.5,1.9,9.8,5.6,13s8.9,4.8,15.5,4.8c6.3,0,11.3-1.6,15-4.8c3.6-3.2,5.5-7.6,5.5-13c0-5.5-1.8-9.8-5.4-12.7
			c-3.6-3-8.7-4.5-15.3-4.5c-6.7,0-11.8,1.5-15.4,4.5C386.7,261.6,384.9,265.8,384.9,271.3z"/>
		<path class="st1" d="M378.9,164.5l53.4,16v8.9l-38.2,11c-1.5,0.4-3.1,0.7-5,0.8v0.2c1.3,0.1,2.9,0.5,4.8,1.1l38.3,11.9v8.5
			l-53.4,16.2v-9l40.1-11c1.2-0.3,2.8-0.6,4.8-0.7V218c-1.5-0.1-3.2-0.4-4.9-0.9l-40-12.3V197l40.2-11c1.3-0.3,2.9-0.6,4.8-0.8v-0.4
			c-1.4-0.1-3-0.4-4.8-0.9l-40.2-10.8v-8.6H378.9z"/>
	</g>
</g>
<text transform="matrix(6.123234e-17 -1 1 6.123234e-17 506.7544 544.0879)" class="st2 st3 st4">Or cook at 18:00</text>
</svg>
