<?xml version="1.0" encoding="utf-8"?>
<!-- Generator: Adobe Illustrator 25.0.1, SVG Export Plug-In . SVG Version: 6.00 Build 0)  -->
<svg version="1.1" id="Layer_1" xmlns="http://www.w3.org/2000/svg" xmlns:xlink="http://www.w3.org/1999/xlink" x="0px" y="0px"
	 viewBox="0 0 750.6 375.1" style="enable-background:new 0 0 750.6 375.1;" xml:space="preserve">
<style type="text/css">
	.st0{fill:#FF9855;}
	.st1{fill:#FFFFFF;}
</style>
<g id="Layer_1_2_">
	<g id="Layer_1_1_">
	</g>
</g>
<g id="Isolation_Mode_1_">
	<path class="st0" d="M750.6,109.7C750.5-36.9-0.1-36.4,0,110.1s168.2,265.3,375.4,265.2S750.7,256.2,750.6,109.7z M359.4,68.8
		c0-8.8,7.1-15.9,15.8-15.9c8.8,0,15.9,7.1,15.9,15.8c0,8.8-7.1,15.9-15.8,15.9C366.6,84.6,359.5,77.5,359.4,68.8z"/>
</g>
<g>
	<path class="st1" d="M165.6,216.7c-5.1,2.3-11.1,3.5-17.8,3.5c-6.1,0-11.8-1-16.9-3c-5.2-2-9.7-4.9-13.5-8.5
		c-3.8-3.7-6.8-8.1-8.9-13.2c-2.2-5.1-3.2-10.8-3.2-17c0-6.3,1.1-12.1,3.3-17.2c2.2-5.1,5.2-9.5,9.1-13.1c3.9-3.6,8.4-6.4,13.6-8.3
		c5.2-1.9,10.8-2.9,16.9-2.9c5.6,0,11.1,1,16.5,3c5.4,2,9.8,4.9,13.1,8.7l-13,13c-1.8-2.5-4.1-4.3-7-5.5c-2.9-1.2-5.9-1.8-8.9-1.8
		c-3.4,0-6.4,0.6-9.2,1.8c-2.8,1.2-5.2,2.9-7.2,5.1c-2,2.2-3.6,4.7-4.7,7.7c-1.1,2.9-1.7,6.2-1.7,9.7c0,3.6,0.6,6.9,1.7,9.8
		c1.1,3,2.7,5.5,4.6,7.7c2,2.1,4.3,3.8,7.1,5c2.8,1.2,5.8,1.8,9.1,1.8c3.8,0,7.1-0.7,9.9-2.2c2.8-1.5,5.1-3.4,6.8-5.8l13.3,12.5
		C175.1,211.2,170.8,214.4,165.6,216.7z"/>
	<path class="st1" d="M243.4,190.1c0,4.5-0.8,8.7-2.5,12.4c-1.6,3.7-3.9,6.8-6.7,9.4c-2.8,2.6-6.1,4.6-9.8,6
		c-3.7,1.4-7.7,2.1-12,2.1c-4.2,0-8.1-0.7-11.9-2.1c-3.8-1.4-7-3.4-9.8-6c-2.8-2.6-5-5.7-6.7-9.4c-1.6-3.7-2.5-7.8-2.5-12.4
		c0-4.5,0.8-8.6,2.5-12.3c1.6-3.7,3.9-6.7,6.7-9.3c2.8-2.5,6.1-4.5,9.8-5.8c3.8-1.3,7.7-2,11.9-2c4.2,0,8.2,0.7,12,2
		c3.7,1.3,7,3.3,9.8,5.8c2.8,2.5,5.1,5.6,6.7,9.3C242.6,181.4,243.4,185.5,243.4,190.1z M225.8,190.1c0-1.8-0.3-3.5-0.9-5.3
		c-0.6-1.7-1.5-3.2-2.6-4.5c-1.1-1.3-2.5-2.4-4.1-3.2c-1.6-0.8-3.5-1.2-5.7-1.2c-2.2,0-4.1,0.4-5.7,1.2c-1.6,0.8-3,1.9-4.1,3.2
		c-1.1,1.3-1.9,2.8-2.5,4.5c-0.6,1.7-0.8,3.5-0.8,5.3c0,1.8,0.3,3.5,0.8,5.3c0.6,1.7,1.4,3.3,2.5,4.6c1.1,1.4,2.5,2.5,4.1,3.3
		c1.6,0.8,3.5,1.2,5.7,1.2c2.2,0,4.1-0.4,5.7-1.2c1.6-0.8,3-1.9,4.1-3.3c1.1-1.4,2-2.9,2.5-4.6C225.5,193.6,225.8,191.8,225.8,190.1
		z"/>
	<path class="st1" d="M314.1,190.1c0,4.5-0.8,8.7-2.5,12.4c-1.6,3.7-3.9,6.8-6.7,9.4c-2.8,2.6-6.1,4.6-9.8,6
		c-3.7,1.4-7.7,2.1-12,2.1c-4.2,0-8.1-0.7-11.9-2.1c-3.8-1.4-7-3.4-9.8-6c-2.8-2.6-5-5.7-6.7-9.4c-1.6-3.7-2.5-7.8-2.5-12.4
		c0-4.5,0.8-8.6,2.5-12.3c1.6-3.7,3.9-6.7,6.7-9.3c2.8-2.5,6.1-4.5,9.8-5.8c3.8-1.3,7.7-2,11.9-2c4.2,0,8.2,0.7,12,2
		c3.7,1.3,7,3.3,9.8,5.8c2.8,2.5,5.1,5.6,6.7,9.3C313.2,181.4,314.1,185.5,314.1,190.1z M296.4,190.1c0-1.8-0.3-3.5-0.9-5.3
		c-0.6-1.7-1.5-3.2-2.6-4.5c-1.1-1.3-2.5-2.4-4.1-3.2c-1.6-0.8-3.5-1.2-5.7-1.2c-2.2,0-4.1,0.4-5.7,1.2c-1.6,0.8-3,1.9-4.1,3.2
		c-1.1,1.3-1.9,2.8-2.5,4.5c-0.6,1.7-0.8,3.5-0.8,5.3c0,1.8,0.3,3.5,0.8,5.3c0.6,1.7,1.4,3.3,2.5,4.6c1.1,1.4,2.5,2.5,4.1,3.3
		c1.6,0.8,3.5,1.2,5.7,1.2c2.2,0,4.1-0.4,5.7-1.2c1.6-0.8,3-1.9,4.1-3.3c1.1-1.4,2-2.9,2.5-4.6C296.1,193.6,296.4,191.8,296.4,190.1
		z"/>
	<path class="st1" d="M385.5,218.1h-22.7l-18.2-26.7h-0.3v26.7h-18.4v-84.5h18.4V185h0.3l17.8-22.6h22.2l-21.5,25.1L385.5,218.1z"/>
	<path class="st1" d="M456.7,218.1v-30.4c0-1.6-0.1-3.1-0.4-4.5c-0.3-1.4-0.7-2.7-1.3-3.7c-0.6-1.1-1.4-1.9-2.5-2.6
		c-1.1-0.6-2.4-1-4.1-1c-1.6,0-3.1,0.3-4.3,1c-1.2,0.6-2.3,1.5-3.1,2.6c-0.8,1.1-1.4,2.4-1.8,3.9c-0.4,1.5-0.6,3-0.6,4.5v30.2h-18.4
		v-55.7h17.8v7.7h0.2c0.7-1.2,1.5-2.4,2.6-3.5c1.1-1.2,2.3-2.1,3.8-3c1.5-0.8,3-1.5,4.8-2c1.7-0.5,3.5-0.8,5.5-0.8
		c3.7,0,6.9,0.7,9.5,2c2.6,1.3,4.7,3.1,6.3,5.2c1.6,2.1,2.8,4.6,3.5,7.3c0.7,2.8,1.1,5.5,1.1,8.3v34.4H456.7z"/>
	<path class="st1" d="M548,190.1c0,4.5-0.8,8.7-2.5,12.4c-1.6,3.7-3.9,6.8-6.7,9.4c-2.8,2.6-6.1,4.6-9.8,6c-3.7,1.4-7.7,2.1-12,2.1
		c-4.2,0-8.1-0.7-11.9-2.1c-3.8-1.4-7-3.4-9.8-6c-2.8-2.6-5-5.7-6.7-9.4c-1.6-3.7-2.5-7.8-2.5-12.4c0-4.5,0.8-8.6,2.5-12.3
		c1.6-3.7,3.9-6.7,6.7-9.3c2.8-2.5,6.1-4.5,9.8-5.8c3.8-1.3,7.7-2,11.9-2c4.2,0,8.2,0.7,12,2c3.7,1.3,7,3.3,9.8,5.8
		c2.8,2.5,5.1,5.6,6.7,9.3C547.2,181.4,548,185.5,548,190.1z M530.3,190.1c0-1.8-0.3-3.5-0.9-5.3c-0.6-1.7-1.5-3.2-2.6-4.5
		c-1.1-1.3-2.5-2.4-4.1-3.2c-1.6-0.8-3.5-1.2-5.7-1.2c-2.2,0-4.1,0.4-5.7,1.2c-1.6,0.8-3,1.9-4.1,3.2c-1.1,1.3-1.9,2.8-2.5,4.5
		c-0.6,1.7-0.8,3.5-0.8,5.3c0,1.8,0.3,3.5,0.8,5.3c0.6,1.7,1.4,3.3,2.5,4.6c1.1,1.4,2.5,2.5,4.1,3.3c1.6,0.8,3.5,1.2,5.7,1.2
		s4.1-0.4,5.7-1.2c1.6-0.8,3-1.9,4.1-3.3c1.1-1.4,2-2.9,2.5-4.6C530,193.6,530.3,191.8,530.3,190.1z"/>
	<path class="st1" d="M630.5,218.1H612l-11-34.6h-0.2l-10.7,34.6h-18.4l-19.2-55.7h19.8l9.6,35.2h0.3l9.9-35.2h18.4l10.3,35.2h0.2
		l9.7-35.2h19L630.5,218.1z"/>
</g>
</svg>
