<?xml version="1.0" encoding="utf-8"?>
<!-- Generator: Adobe Illustrator 25.0.1, SVG Export Plug-In . SVG Version: 6.00 Build 0)  -->
<svg version="1.1" id="Layer_1" xmlns="http://www.w3.org/2000/svg" xmlns:xlink="http://www.w3.org/1999/xlink" x="0px" y="0px"
	 viewBox="0 0 267.2 750.6" style="enable-background:new 0 0 267.2 750.6;" xml:space="preserve">
<style type="text/css">
	.st0{fill:#FF9855;}
	.st1{fill:#7CB142;}
	.st2{fill:#5C77EA;}
</style>
<g id="Layer_1_2_">
	<g id="Layer_1_1_">
	</g>
</g>
<path class="st0" d="M1.6,0v750.6c0.1,0,0.3,0,0.4,0c146.5-0.1,265.3-168.2,265.2-375.4S148.1-0.1,1.6,0z"/>
<g>
	<path class="st1" d="M207.7,272.8c2.6,5.7,4.7,11.6,5.4,17.9c2.4,20.6-1.8,39.2-17.3,53.9c-7,6.6-15.5,10-25.1,11.2
		c-10,1.2-19-0.7-27.3-6.7c-2.9,4.2-4.2,9-5,13.9c-1.3,8.3-1.3,16.7-1.5,25.1c-4.3,0-8.6,0-12.8,0c0.2-3.7,0.3-7.5,0.7-11.2
		c0.3-2.7-0.8-4.8-2-6.9c-1.8-3.2-4.2-6-6.7-8.6c-0.6-0.6-0.9-0.9-1.7-0.2c-10.3,9.4-22,9.6-34.3,4.7c-9.4-3.8-15.7-11-20.1-19.9
		c-5.7-11.6-7.4-24-5.9-36.8c0.7-5.8,2.1-11.5,4.7-16.9c0.2,0.2,0.4,0.2,0.5,0.4c4,6.5,10.2,9.8,17.2,11.8
		c8.1,2.3,16.5,3.1,24.6,5.2c6.6,1.7,12.9,4,17.3,9.6c4.6,5.8,5.6,12.5,5.6,19.6c0,4.3-0.8,8.4-2.7,12.2c-0.7,1.3-0.5,2.2,0.7,3.1
		c1.9,1.5,3.6,3.2,5.3,4.9c0.2,0.2,0.3-0.2,0.4-0.5c1.6-6.1,3.7-11.8,7.7-16.8c0.8-1,0.2-1.6-0.2-2.3c-5.7-9.3-5.9-19.2-2.5-29.3
		c3-9.1,10.2-13.8,18.9-16.6c9-2.9,18.4-3.8,27.6-5.6c7.7-1.5,15.3-3.2,21.8-8c2.6-1.9,5-4.2,6.5-7.2
		C207.4,272.8,207.6,272.8,207.7,272.8z"/>
	<path class="st2" d="M124.1,388.1c4.3,0,8.6,0,12.8,0c14.5,0,29.1,0,43.6,0.1c5.3,0,7.6,2.3,7.6,7.7c0,1.7,0,3.3,0,5
		c0,3.3-1.9,5.8-5.1,6.4c-1.1,0.2-1.3,0.6-1.5,1.6c-2.1,11.4-4.2,22.9-6.2,34.3c-1.8,9.7-3.5,19.5-5.3,29.2
		c-0.5,2.7-2.3,4.4-4.7,5.5c-23.1,0-46.2,0-69.3,0c-3.4-1.2-4.7-3.8-5.3-7.2c-3.2-18.4-6.6-36.7-10-55.1c-0.4-2.4-1-4.7-1.4-7
		c-0.1-0.8-0.4-1-1.2-1.2c-3.6-0.9-5.3-3.1-5.3-6.9c0-1.7,0-3.5,0-5.2c0.1-4.3,2.7-6.9,7-6.9c14.1,0,28.2,0,42.2,0
		C122.7,388.1,123.4,388.1,124.1,388.1z"/>
</g>
</svg>
