<?xml version="1.0" encoding="utf-8"?>
<!-- Generator: Adobe Illustrator 25.0.1, SVG Export Plug-In . SVG Version: 6.00 Build 0)  -->
<svg version="1.1" id="Layer_1" xmlns="http://www.w3.org/2000/svg" xmlns:xlink="http://www.w3.org/1999/xlink" x="0px" y="0px"
	 viewBox="0 0 267.2 750.6" style="enable-background:new 0 0 267.2 750.6;" xml:space="preserve">
<style type="text/css">
	.st0{fill:#FF9855;}
	.st1{fill:#F0F8FD;}
	.st2{fill:#FECA01;}
</style>
<g id="Layer_1_2_">
	<g id="Layer_1_1_">
	</g>
</g>
<path class="st0" d="M1.6,0v750.6c0.1,0,0.3,0,0.4,0c146.5-0.1,265.3-168.2,265.2-375.4S148.1-0.1,1.6,0z"/>
<g>
	<path class="st1" d="M128.7,322.4c6.8-0.2,13.4,0.1,19.9,2.4c13.2,4.6,22.8,13.1,28.6,25.8c0.8,1.7,1.7,2.2,3.5,2.2
		c27.1,0.5,45.7,28.6,35.5,53.7c-4.1,10.2-11.4,17.4-21.3,21.9c-4.8,2.2-9.9,3.1-15.2,3.1c-30.4,0-60.7,0-91.1,0
		c-20.2,0-33.7-21.5-24.4-39.9c0.4-0.7,0.9-1.4,0.8-2.3c0.7-0.2,1-0.8,1.4-1.4c4.3-5.9,10-9.7,17.2-11.1c2-0.4,2.3-1.1,2.2-3
		c-1-19.9,7-35.1,24-45.4C115.7,325.1,122.1,323.5,128.7,322.4z"/>
	<path class="st2" d="M128.7,322.4c-6.6,1.1-13,2.7-18.8,6.2c-17.1,10.4-25.1,25.6-24,45.4c0.1,1.9-0.2,2.6-2.2,3
		c-7.2,1.3-12.9,5.1-17.2,11.1c-0.4,0.5-0.7,1.2-1.4,1.4c-8-4.4-14.4-10.6-18.9-18.5c-10.2-18.2-7.6-40.9,6.7-56.3
		c21.1-22.5,57.7-19.6,74.8,6.1C128.1,321.2,128.4,321.8,128.7,322.4z"/>
</g>
</svg>
