<?xml version="1.0" encoding="utf-8"?>
<!-- Generator: Adobe Illustrator 25.0.1, SVG Export Plug-In . SVG Version: 6.00 Build 0)  -->
<svg version="1.1" id="Layer_1" xmlns="http://www.w3.org/2000/svg" xmlns:xlink="http://www.w3.org/1999/xlink" x="0px" y="0px"
	 viewBox="0 0 267.2 750.6" style="enable-background:new 0 0 267.2 750.6;" xml:space="preserve">
<style type="text/css">
	.st0{fill:#FF9855;}
	.st1{fill:#FFFFFF;}
</style>
<g id="Layer_1_2_">
	<g id="Layer_1_1_">
	</g>
</g>
<path class="st0" d="M1.6,0v750.6c0.1,0,0.3,0,0.4,0c146.5-0.1,265.3-168.2,265.2-375.4S148.1-0.1,1.6,0z"/>
<g>
	<path class="st1" d="M100.8,344.7c3.8-2.3,7.4-4.7,11.3-6.9c18.2-10,42.2-5.7,56,10.2c1.6,1.8,3.1,3.9,4.2,6
		c2.9,5.4,6.5,8.3,13.2,10.3c13.4,3.9,21.7,17.2,20.3,32.2c-1.1,12.3-7.4,21.4-18.8,26.1c-4.4,1.8-9.5,2.4-14.3,2.5
		c-26.8,0.3-53.5-0.3-80.4,0.2c-21,0.4-32.4-18.1-24.5-35.8c1.8-4.1,6.3-7.1,9.9-10.3c1.8-1.7,4.3-2.5,6.5-3.8
		c0.6-1,1.8-1.8,1.9-2.9C87.9,361.5,93.2,352.5,100.8,344.7z"/>
	<path class="st1" d="M100.8,344.7c-7.6,7.8-12.9,16.8-14.5,27.8c-0.2,1.1-1.2,1.9-1.9,2.9c-5.6,1-11,1.1-14.4-4.7
		c-3.6-6.4-5.7-12.8-3.9-20.6c4.7-20.3,29.8-23.8,40.5-12.5C104.7,339.9,102.7,342.3,100.8,344.7z"/>
	<path class="st1" d="M93.7,310.1c0,2.9,0.4,6-0.2,8.8c-0.3,1.6-2,2.9-3.1,4.3c-1.2-1.3-3.5-2.5-3.6-3.9c-0.4-6.4-0.4-12.9,0-19.4
		c0.1-1.3,2.3-2.5,3.5-3.8c1.1,1.3,3,2.5,3.2,4C94.1,303.4,93.7,306.8,93.7,310.1z"/>
	<path class="st1" d="M43.9,359.3c-3.2,0-6.3,0.4-9.4-0.2c-1.3-0.3-2.4-2.3-3.5-3.5c1.2-0.9,2.4-2.5,3.7-2.5
		c6.2-0.3,12.5-0.3,18.8,0c1.3,0.1,2.5,1.8,3.9,2.7c-1.1,1.1-2.2,3.2-3.5,3.3C50.7,359.6,47.3,359.3,43.9,359.3
		C43.9,359.3,43.9,359.3,43.9,359.3z"/>
	<path class="st1" d="M67.7,332.6c-1.6,0.1-3.4,0.8-4.1,0.1c-5.5-5.1-10.8-10.4-16-15.8c-0.4-0.4,0-2.5,0.6-3c0.9-0.7,3.1-1.4,3.5-1
		c5.4,5.3,10.8,10.9,16,16.5C68.1,330,67.7,331.4,67.7,332.6z"/>
	<path class="st1" d="M69.3,379c-2.2,3.2-3.2,5.4-4.8,7.1c-3.8,4-7.7,7.9-11.7,11.7c-0.9,0.8-2.7,1-3.9,0.7
		c-0.7-0.2-1.8-2.5-1.5-2.7c4.4-4.9,8.8-9.9,13.6-14.4C62.3,379.9,65.1,380,69.3,379z"/>
	<path class="st1" d="M115.7,333.1c-0.5-0.4-1.8-0.7-2.3-1.5s-0.4-2.5,0.3-3.1c4.7-5,9.6-10,14.7-14.7c0.7-0.6,2.8-0.4,3.9,0.3
		c0.5,0.3,0.7,2.6,0.2,3.2c-4.6,5.2-9.6,10.3-14.5,15.2C117.7,333,116.9,332.8,115.7,333.1z"/>
	<path class="st1" d="M103.1,454c2.8-4.8,5.3-9.1,8-13.1c0.1-0.2,4.5,1.4,4.8,2.6C117,447.8,109.6,454.8,103.1,454z"/>
	<path class="st1" d="M151.1,454.4c3.1-5.3,5.3-9.6,8-13.6c0.2-0.3,3.7,0.6,4.1,1.7C165,446.5,158.3,454.7,151.1,454.4z"/>
	<path class="st1" d="M127.5,454.1c2.9-5.4,5.3-9.9,7.7-14.5c0.8,0.1,1.6,0.1,2.4,0.2c0.5,1.8,2.1,4.6,1.5,5.3
		C136.1,448.3,137.6,456.2,127.5,454.1z"/>
</g>
</svg>
